<svg xmlns="http://www.w3.org/2000/svg" width="800" height="800"><path fill="#103B9B" d="M24.807 331.323v-98.912l148.368 98.912z"/><path fill="#103B9B" d="M25.807 234.279v96.044h144.065zm128.76-80.44h176.755v117.836z"/><path fill="#103B9B" d="M330.322 154.839H157.87l172.452 114.968zM24.807 468.678h148.368L24.807 567.589z"/><path fill="#103B9B" d="M25.807 469.678v96.043l144.065-96.043zm442.871-315.839h176.755L468.678 271.675z"/><path fill="#103B9B" d="M642.13 154.839H469.678v114.968zm-15.305 176.484l148.368-98.912v98.912z"/><path fill="#103B9B" d="M774.193 330.323v-96.044l-144.065 96.044zM154.567 646.161l176.755-117.838v117.838z"/><path fill="#103B9B" d="M157.87 645.161h172.452v-114.97zm468.955-176.483h148.368v98.911z"/><path fill="#103B9B" d="M774.193 565.721v-96.043H630.128zm-305.515 80.44V528.323l176.755 117.838z"/><path fill="#103B9B" d="M469.678 645.161H642.13l-172.452-114.97z"/><path fill="#FFF" d="M642.13 154.839L469.678 269.807V154.839h-19.356v194.838h323.871v-19.354H630.128l144.065-96.044v-68.234L527.778 330.323h-58.1v-48.095l191.065-127.389zM157.87 645.161l172.452-114.97v114.97h19.356V450.322H25.807v19.356h144.065L25.807 565.721v68.233l246.415-164.276h58.1v48.108l-191.06 127.375z"/><path fill="#ED1F34" d="M52.217 646.161l266.226-177.483h12.879v18.627L93.041 646.161z"/><path fill="#ED1F34" d="M318.746 469.678L55.52 645.161h37.218L330.322 486.77v-17.092zm-84.62-138.355L24.807 191.44v-27.263l250.718 167.146z"/><path fill="#ED1F34" d="M25.807 166.045v24.861l208.622 139.417h37.793zm498.669 302.633h39.55l211.167 141.11v26.034z"/><path fill="#ED1F34" d="M774.193 633.954v-23.632l-210.47-140.644h-35.945zM468.678 331.323v-18.615l238.281-158.869h40.824L481.557 331.323z"/><path fill="#ED1F34" d="M481.254 330.323L744.48 154.839h-37.218L469.678 313.244v17.079z"/><path d="M800 657.979V141.936c0-.076-.011-.15-.012-.226-.006-.348-.02-.693-.054-1.041-.014-.148-.041-.291-.061-.436-.036-.272-.07-.545-.125-.815-.038-.189-.09-.374-.136-.561-.054-.22-.104-.44-.169-.659-.069-.227-.153-.446-.232-.666-.063-.172-.118-.346-.189-.516a12.33 12.33 0 0 0-.368-.79c-.059-.119-.108-.237-.17-.354-.178-.33-.37-.65-.573-.963-.027-.043-.05-.088-.077-.131a13.291 13.291 0 0 0-.781-1.052c-.125-.153-.265-.289-.396-.435-.146-.162-.287-.331-.442-.485a12.306 12.306 0 0 0-.678-.616c-.084-.072-.162-.153-.249-.224-.221-.181-.451-.344-.682-.509-.11-.08-.217-.167-.33-.243-.2-.134-.408-.251-.614-.374-.158-.094-.313-.194-.475-.28-.164-.088-.334-.162-.503-.243-.215-.103-.427-.21-.646-.303-.126-.052-.255-.093-.382-.14-.267-.1-.532-.201-.806-.285-.1-.031-.201-.05-.303-.078-.301-.083-.602-.167-.91-.227-.138-.027-.276-.04-.414-.063-.298-.05-.596-.1-.9-.127-.398-.038-.8-.06-1.202-.06-.009-.002-.018-.002-.024-.002H12.882c-.403.002-.805.022-1.206.06-.351.033-.695.088-1.038.148-.091.016-.183.024-.272.042-.337.067-.666.155-.993.248-.072.021-.146.035-.218.057-.296.089-.583.198-.871.308-.105.04-.213.072-.316.117-.241.1-.473.215-.706.33-.146.072-.298.136-.442.213-.184.098-.359.21-.538.318-.184.11-.372.215-.552.335-.136.091-.262.193-.394.288-.208.151-.42.299-.621.464-.108.088-.207.188-.312.279-.208.182-.42.363-.618.561-.189.188-.361.391-.539.59-.1.114-.207.217-.303.333-.275.334-.532.682-.772 1.041l-.01.014c-.033.05-.059.104-.091.153-.198.306-.389.618-.561.939-.065.12-.117.246-.177.368-.126.256-.253.511-.361.776-.072.174-.129.351-.193.526-.079.218-.162.434-.23.657-.067.22-.115.44-.17.663-.046.186-.098.368-.134.557-.053.272-.089.545-.125.819-.019.145-.046.288-.06.434-.035.348-.046.695-.053 1.041.004.075-.006.149-.006.225v516.127c0 .076.01.15.012.226.005.348.019.693.053 1.041.014.146.041.289.06.436.036.273.071.545.125.817.038.188.09.373.136.561.053.22.103.44.168.659.069.225.151.441.232.662.063.174.119.35.191.521.11.268.239.526.366.784.059.119.108.239.172.357.177.331.37.65.573.964.027.043.05.088.078.131l.007.01c.278.417.585.811.908 1.191.1.118.207.227.31.342a13.359 13.359 0 0 0 1.105 1.077c.256.22.523.427.797.628.115.084.224.176.34.255.389.265.792.507 1.209.73.1.054.203.097.305.146.335.167.676.322 1.027.461a13.719 13.719 0 0 0 1.409.459c.136.036.272.073.41.104.354.081.714.145 1.079.196.125.018.25.043.375.057.459.052.926.083 1.399.084.022 0 .044.004.068.004h774.152l.018.002c.022 0 .045-.004.067-.004.473-.002.938-.032 1.398-.084.124-.014.246-.04.369-.057.367-.052.73-.115 1.086-.198a9.11 9.11 0 0 0 .402-.104 13.17 13.17 0 0 0 1.022-.316c.131-.046.26-.091.389-.143.356-.14.702-.298 1.041-.466.097-.049.196-.09.292-.142.42-.224.824-.468 1.215-.732.113-.078.221-.167.33-.248a11.773 11.773 0 0 0 1.208-1c.244-.229.477-.466.704-.712.103-.113.208-.222.308-.339.323-.38.63-.775.908-1.19l.007-.011c.029-.043.05-.087.078-.13.203-.313.396-.632.572-.964.063-.117.112-.237.171-.354.129-.26.256-.52.368-.79.07-.17.125-.344.188-.516.081-.221.164-.44.232-.666.065-.219.115-.438.169-.657.047-.188.098-.371.136-.563.054-.27.09-.544.124-.815.019-.146.047-.289.062-.437.035-.346.047-.693.054-1.039.002-.076.012-.15.012-.226v-.045a.146.146 0 0 0 .004-.041zM469.678 313.244l237.584-158.405h37.219L481.254 330.323h46.524l246.415-164.277v183.631H450.322V154.839h210.421L469.678 282.228v31.016zm-120 36.433H25.807V221.945l162.176 108.378h46.446L25.807 190.906v-24.86l246.416 164.277h46.524L55.52 154.839h294.157v194.838zM330.322 486.77L92.738 645.161H55.52l263.226-175.483h-46.524L25.807 633.954V450.323h323.871v194.839H139.262l191.061-127.375V486.77zm120-36.448h233.549c7.128 0 12.903-5.777 12.903-12.903s-5.775-12.902-12.903-12.902H437.419c-7.127 0-12.903 5.776-12.903 12.902v207.742h-49.031V437.419c0-7.126-5.776-12.902-12.903-12.902H25.807v-49.033h336.774c7.127 0 12.903-5.777 12.903-12.903V154.839h49.031v207.742c0 7.126 5.776 12.903 12.903 12.903h336.774v49.033h-38.709c-7.128 0-12.903 5.776-12.903 12.902 0 7.126 5.775 12.903 12.903 12.903h38.709v128.963L610.171 469.678h-46.448l210.471 140.645v23.631L527.778 469.678h-46.524L744.48 645.161H450.323V450.322z"/><path fill="#FFF" d="M330.322 269.807L157.87 154.839H55.52l263.226 175.484H187.983L25.807 221.944v12.335l144.065 96.044H25.807v19.354h323.871V154.839h-19.356zm139.356 260.384l172.452 114.97h102.35L481.254 469.678h128.918l164.021 109.608v-13.565l-144.065-96.043h144.065v-19.355h-38.709c-7.128 0-12.903-5.777-12.903-12.903h-25.807c0 7.126-5.775 12.903-12.903 12.903H450.322v194.839h19.355V530.191z"/><path fill="#ED1F34" d="M374.484 646.161V437.419c0-6.563-5.34-11.902-11.903-11.902H24.807v-51.033h337.774c6.563 0 11.903-5.34 11.903-11.903V153.839h51.031v208.742c0 6.563 5.34 11.903 11.903 11.903h337.774v51.033h-39.709c-6.563 0-11.903 5.339-11.903 11.902v1h-27.807v-1c0-6.563-5.34-11.902-11.903-11.902H437.419c-6.563 0-11.903 5.339-11.903 11.902v208.742h-51.032z"/><path fill="#ED1F34" d="M722.581 437.419c0-7.126 5.775-12.902 12.903-12.902h38.709v-49.033H437.419c-7.127 0-12.903-5.777-12.903-12.903V154.839h-49.031v207.742c0 7.126-5.776 12.903-12.903 12.903H25.807v49.033h336.774c7.127 0 12.903 5.776 12.903 12.902v207.742h49.031V437.419c0-7.126 5.776-12.902 12.903-12.902H683.87c7.128 0 12.903 5.776 12.903 12.902h25.808z"/></svg>