<svg xmlns="http://www.w3.org/2000/svg" viewBox="0 0 799.999 799.999"><path d="M24.807 646.16V153.838h39.709c6.563 0 11.903-5.34 11.903-11.903v-1h27.806v1c0 6.563 5.34 11.903 11.903 11.903h659.064V646.16H24.807zM400 203.178c-2.097 0-4.165.558-5.979 1.612L75.74 389.707a11.941 11.941 0 0 0-5.923 10.292c0 4.225 2.269 8.169 5.92 10.293l318.279 184.915a11.91 11.91 0 0 0 11.961 0l223.375-129.779c5.675-3.297 7.61-10.597 4.314-16.273l-.503-.864 24.043-13.968.502.865a11.955 11.955 0 0 0 10.306 5.925 11.91 11.91 0 0 0 5.968-1.612l50.275-29.21a11.942 11.942 0 0 0 5.923-10.293c0-4.225-2.27-8.169-5.923-10.292L405.979 204.79a11.91 11.91 0 0 0-5.979-1.612z" fill="#259245"/><path d="M64.516 154.838H25.807V645.16h748.387V154.838H116.129c-7.127 0-12.903-5.775-12.903-12.903H77.419c0 7.127-5.775 12.903-12.903 12.903zm329.002 49.087a12.899 12.899 0 0 1 12.963 0l318.28 184.916a12.903 12.903 0 0 1 0 22.314l-50.276 29.211c-6.163 3.577-14.06 1.486-17.64-4.676l-22.313 12.963c3.578 6.161 1.486 14.06-4.677 17.64L406.479 596.071a12.89 12.89 0 0 1-6.483 1.746c-2.239 0-4.478-.581-6.482-1.746L75.234 411.156a12.904 12.904 0 0 1 .003-22.314l318.281-184.917z" fill="#259245"/><path d="M787.097 129.031H116.129c-7.127 0-12.903 5.775-12.903 12.903s5.776 12.903 12.903 12.903h658.064v490.322H25.807V154.838h38.709c7.128 0 12.903-5.775 12.903-12.903s-5.775-12.903-12.903-12.903H12.903C5.775 129.031 0 134.807 0 141.935v516.129c0 7.128 5.775 12.903 12.903 12.903h774.193c7.128 0 12.903-5.775 12.903-12.903V141.935c.001-7.128-5.774-12.904-12.902-12.904z"/><path d="M105.416 399.999L400 228.848l294.584 171.151-32.56 18.917c-5.675 3.298-7.609 10.598-4.313 16.274l.503.864-24.044 13.969-.502-.864a11.957 11.957 0 0 0-10.307-5.927c-2.087 0-4.15.558-5.966 1.612L400 571.149l-294.584-171.15zM400 283.091c-64.463 0-116.908 52.445-116.908 116.908 0 64.464 52.445 116.908 116.908 116.908 43.372 0 82.977-23.896 103.358-62.362l.032-.061.04-.056c.7-.971 1.251-2.044 1.636-3.19l.021-.062.028-.059c7.824-16.026 11.792-33.226 11.792-51.119.001-64.462-52.443-116.907-116.907-116.907z" fill="#ffe000"/><path d="M661.522 418.052l31.072-18.053L400 230.005 107.406 399.999 400 569.993 616.893 443.98c6.159-3.579 14.057-1.488 17.64 4.676l22.314-12.964c-3.579-6.162-1.487-14.06 4.675-17.64zM400 517.907c-65.015 0-117.908-52.894-117.908-117.908 0-65.015 52.894-117.908 117.908-117.908s117.908 52.893 117.908 117.908c0 18.479-4.284 35.973-11.894 51.558a13.005 13.005 0 0 1-1.772 3.457c-19.8 37.367-59.088 62.893-104.242 62.893z" fill="#ffe000"/><path d="M68.817 399.999c0 4.598 2.446 8.848 6.42 11.157l318.28 184.915c2.004 1.165 4.242 1.746 6.482 1.746s4.479-.581 6.482-1.746l223.376-129.779c6.162-3.58 8.254-11.479 4.676-17.64-3.584-6.164-11.48-8.254-17.64-4.676L400 569.993 107.406 399.999 400 230.005l292.594 169.994-31.073 18.053c-6.162 3.58-8.254 11.479-4.676 17.64 3.58 6.162 11.477 8.253 17.64 4.676l50.276-29.211a12.903 12.903 0 0 0 0-22.314L406.48 203.927a12.894 12.894 0 0 0-12.963 0L75.238 388.842a12.905 12.905 0 0 0-6.421 11.157z"/><path d="M489.698 417.545a169.097 169.097 0 0 0-73.141-57.752c-20.494-8.411-42.106-12.675-64.237-12.675-9.521 0-19.112.813-28.507 2.417l-2.308.394 1.311-1.939c17.394-25.729 46.248-41.09 77.185-41.09 51.336 0 93.102 41.765 93.102 93.102 0 5.664-.542 11.433-1.61 17.146l-.431 2.298-1.364-1.901z" fill="#103b9b"/><path d="M416.938 358.867a170.14 170.14 0 0 1 73.572 58.094 92.159 92.159 0 0 0 1.594-16.962c0-50.785-41.318-92.102-92.102-92.102-31.744 0-59.789 16.143-76.356 40.65a170.168 170.168 0 0 1 93.292 10.32z" fill="#103b9b"/><path d="M400 493.101c-51.336 0-93.102-41.766-93.102-93.102 0-7.444.906-14.908 2.692-22.186l.136-.554.546-.165a145.211 145.211 0 0 1 41.966-6.195c19.027 0 37.625 3.673 55.278 10.917 30.793 12.64 56.525 35.662 72.455 64.825l.273.502-.293.491c-16.77 28.045-47.406 45.467-79.951 45.467z" fill="#103b9b"/><path d="M407.138 382.741c-30.816-12.646-64.859-14.257-96.576-4.69a91.923 91.923 0 0 0-2.663 21.948c0 50.785 41.318 92.102 92.102 92.102 33.574 0 62.999-18.066 79.095-44.98-15.858-29.03-41.188-51.75-71.958-64.38z" fill="#103b9b"/><path d="M504.242 455.014a12.873 12.873 0 0 0 1.772-3.457 114.778 114.778 0 0 1-1.772 3.457zm-97.104-72.273c30.771 12.63 56.099 35.35 71.956 64.38a91.47 91.47 0 0 0 11.415-30.16 170.145 170.145 0 0 0-73.573-58.094 170.148 170.148 0 0 0-93.293-10.319 91.659 91.659 0 0 0-13.083 29.503c31.718-9.567 65.761-7.956 96.578 4.69z" fill="#fff"/><path d="M517.908 399.999c0-65.015-52.894-117.908-117.908-117.908s-117.908 52.893-117.908 117.908S334.986 517.907 400 517.907c45.154 0 84.442-25.526 104.242-62.896a117.157 117.157 0 0 0 1.772-3.457c7.61-15.582 11.894-33.076 11.894-51.555zM400 492.101c-50.785 0-92.102-41.318-92.102-92.102 0-7.563.936-14.909 2.663-21.948a91.679 91.679 0 0 1 13.082-29.503c16.568-24.507 44.613-40.65 76.356-40.65 50.785 0 92.102 41.318 92.102 92.102 0 5.796-.563 11.46-1.593 16.962a91.47 91.47 0 0 1-11.415 30.16c-16.094 26.912-45.519 44.979-79.093 44.979z"/></svg>