<svg id="Layer_1" xmlns="http://www.w3.org/2000/svg" width="70" height="53"><style>.st0{fill:#e3731c}</style><path class="st0" d="M66.24 16.474V6.923h-6.501V3.049h-2.521V.563H44.402v22.275H69.5v-6.364z"/><path d="M47.221 34.825c-2.221.355-3.356 1.98-3.356 4.839 0 2.877 1.512 4.801 3.831 4.801 1.079 0 2.059-.355 4.12-1.356v2.327c-2.473 1.124-3.929 1.471-5.921 1.471-2.157 0-3.675-.567-4.914-1.819-1.27-1.259-1.906-2.921-1.906-4.772 0-4.118 3.077-6.904 7.573-6.904 2.986 0 5.039 1.351 5.039 3.335 0 1.278-.956 2.157-2.374 2.157-.728 0-1.326-.189-2.091-.629v-3.45zm-10.958 5.492c1.991-2.486 2.694-3.489 2.694-4.71 0-1.215-.974-2.194-2.275-2.194-.802 0-1.523.375-1.875.765v5.064l-3.262 4.306v-9.816h-3.102l-5.156 8.467v-8.467h-1.782l-4.681 1.13v1.185l2.553.257v10.384h3.3l4.945-8.05v8.05h3.614l5.027-6.371zM6.968 45.089c.351.016.505.016.727.016 2.658 0 4.083-1.642 4.083-4.788 0-2.664-1.166-4.081-3.318-4.081-.358 0-.734.043-1.493.134v8.719zm0 5.674l2.14.471v1.203H.713v-1.203l1.913-.471V36.237H.5v-1.246l5.136-1.545h1.333v1.735c2.405-1.417 3.231-1.668 4.465-1.668 2.849 0 4.952 2.603 4.952 6.207 0 4.166-2.806 6.969-7.227 6.969-.5 0-1.332-.03-2.19-.128v4.202z"/><path fill="#e669a2" d="M66.24 16.474h3.26v6.364h-3.26z"/><path fill="#f3bc87" d="M57.218 3.049h2.521v3.875h-2.521z"/><path fill="#ee9c34" d="M44.402.563h12.816v2.486H44.402z"/><path class="st0" d="M44.402 3.049h12.816v3.875H44.402z"/><path fill="#f3be26" d="M59.739 6.923h6.5v9.551h-6.5z"/><path fill="#db4e18" d="M59.739 16.474h6.5v6.364h-6.5z"/><path fill="#e88c14" d="M57.218 6.923h2.521v9.551h-2.521z"/><path fill="#d1390d" d="M57.218 16.474h2.521v6.364h-2.521z"/><path fill="#d85604" d="M52.417 16.474h4.801V6.923H44.402v6.362h8.015z"/><path fill="#c22303" d="M52.417 16.474h4.801v6.364h-4.801z"/><path fill="#c14303" d="M44.402 13.285h8.015v3.189h-8.015z"/><path d="M44.402 16.474h8.015v6.364h-8.015zm-12.851 6.364h12.851v3.182H31.551z" fill="#ad1b02"/></svg>